<mxfile host="app.diagrams.net" modified="2023-09-06T16:57:44.041Z" agent="Mozilla/5.0 (Windows NT 10.0; Win64; x64) AppleWebKit/537.36 (KHTML, like Gecko) Chrome/116.0.0.0 Safari/537.36" etag="Uvv3vJVyYULFGa-GAzyj" version="21.6.8" type="device">
  <diagram name="Page-1" id="ry_AOGRqUl3fS8fjHuj_">
    <mxGraphModel dx="1736" dy="948" grid="1" gridSize="10" guides="1" tooltips="1" connect="1" arrows="1" fold="1" page="1" pageScale="1" pageWidth="850" pageHeight="1100" math="0" shadow="0">
      <root>
        <mxCell id="0" />
        <mxCell id="1" parent="0" />
        <mxCell id="SX9EASN-qoHNX0BiEk4m-10" style="edgeStyle=orthogonalEdgeStyle;rounded=0;orthogonalLoop=1;jettySize=auto;html=1;exitX=0.5;exitY=1;exitDx=0;exitDy=0;entryX=0.5;entryY=0;entryDx=0;entryDy=0;" edge="1" parent="1" source="SX9EASN-qoHNX0BiEk4m-1" target="SX9EASN-qoHNX0BiEk4m-2">
          <mxGeometry relative="1" as="geometry" />
        </mxCell>
        <mxCell id="SX9EASN-qoHNX0BiEk4m-1" value="Start" style="ellipse;whiteSpace=wrap;html=1;" vertex="1" parent="1">
          <mxGeometry x="373" y="120" width="105" height="70" as="geometry" />
        </mxCell>
        <mxCell id="SX9EASN-qoHNX0BiEk4m-11" style="edgeStyle=orthogonalEdgeStyle;rounded=0;orthogonalLoop=1;jettySize=auto;html=1;exitX=0.5;exitY=1;exitDx=0;exitDy=0;" edge="1" parent="1" source="SX9EASN-qoHNX0BiEk4m-2" target="SX9EASN-qoHNX0BiEk4m-3">
          <mxGeometry relative="1" as="geometry" />
        </mxCell>
        <mxCell id="SX9EASN-qoHNX0BiEk4m-2" value="Idle" style="rounded=0;whiteSpace=wrap;html=1;" vertex="1" parent="1">
          <mxGeometry x="365" y="230" width="120" height="60" as="geometry" />
        </mxCell>
        <mxCell id="SX9EASN-qoHNX0BiEk4m-13" style="edgeStyle=orthogonalEdgeStyle;rounded=0;orthogonalLoop=1;jettySize=auto;html=1;exitX=0.5;exitY=1;exitDx=0;exitDy=0;entryX=0.5;entryY=0;entryDx=0;entryDy=0;" edge="1" parent="1" source="SX9EASN-qoHNX0BiEk4m-3" target="SX9EASN-qoHNX0BiEk4m-4">
          <mxGeometry relative="1" as="geometry" />
        </mxCell>
        <mxCell id="SX9EASN-qoHNX0BiEk4m-3" value="Fetch Instruction" style="rounded=0;whiteSpace=wrap;html=1;" vertex="1" parent="1">
          <mxGeometry x="365" y="320" width="120" height="60" as="geometry" />
        </mxCell>
        <mxCell id="SX9EASN-qoHNX0BiEk4m-15" style="edgeStyle=orthogonalEdgeStyle;rounded=0;orthogonalLoop=1;jettySize=auto;html=1;exitX=0.5;exitY=1;exitDx=0;exitDy=0;entryX=0.5;entryY=0;entryDx=0;entryDy=0;" edge="1" parent="1" source="SX9EASN-qoHNX0BiEk4m-4" target="SX9EASN-qoHNX0BiEk4m-5">
          <mxGeometry relative="1" as="geometry" />
        </mxCell>
        <mxCell id="SX9EASN-qoHNX0BiEk4m-4" value="Decode and Execute Instruction" style="rounded=0;whiteSpace=wrap;html=1;" vertex="1" parent="1">
          <mxGeometry x="365" y="410" width="120" height="60" as="geometry" />
        </mxCell>
        <mxCell id="SX9EASN-qoHNX0BiEk4m-17" style="edgeStyle=orthogonalEdgeStyle;rounded=0;orthogonalLoop=1;jettySize=auto;html=1;exitX=0.5;exitY=1;exitDx=0;exitDy=0;entryX=0.5;entryY=0;entryDx=0;entryDy=0;" edge="1" parent="1" source="SX9EASN-qoHNX0BiEk4m-5" target="SX9EASN-qoHNX0BiEk4m-6">
          <mxGeometry relative="1" as="geometry" />
        </mxCell>
        <mxCell id="SX9EASN-qoHNX0BiEk4m-5" value="Standard Delay" style="rounded=0;whiteSpace=wrap;html=1;" vertex="1" parent="1">
          <mxGeometry x="365" y="499" width="120" height="60" as="geometry" />
        </mxCell>
        <mxCell id="SX9EASN-qoHNX0BiEk4m-18" style="edgeStyle=orthogonalEdgeStyle;rounded=0;orthogonalLoop=1;jettySize=auto;html=1;exitX=0.5;exitY=1;exitDx=0;exitDy=0;entryX=0.5;entryY=0;entryDx=0;entryDy=0;" edge="1" parent="1" source="SX9EASN-qoHNX0BiEk4m-6" target="SX9EASN-qoHNX0BiEk4m-7">
          <mxGeometry relative="1" as="geometry" />
        </mxCell>
        <mxCell id="SX9EASN-qoHNX0BiEk4m-6" value="Next Instruction" style="rounded=0;whiteSpace=wrap;html=1;" vertex="1" parent="1">
          <mxGeometry x="365" y="599" width="120" height="60" as="geometry" />
        </mxCell>
        <mxCell id="SX9EASN-qoHNX0BiEk4m-19" style="edgeStyle=orthogonalEdgeStyle;rounded=0;orthogonalLoop=1;jettySize=auto;html=1;exitX=0.5;exitY=1;exitDx=0;exitDy=0;entryX=0.5;entryY=0;entryDx=0;entryDy=0;" edge="1" parent="1" source="SX9EASN-qoHNX0BiEk4m-7" target="SX9EASN-qoHNX0BiEk4m-8">
          <mxGeometry relative="1" as="geometry" />
        </mxCell>
        <mxCell id="SX9EASN-qoHNX0BiEk4m-7" value="Sense Halt" style="rounded=0;whiteSpace=wrap;html=1;" vertex="1" parent="1">
          <mxGeometry x="365" y="689" width="120" height="60" as="geometry" />
        </mxCell>
        <mxCell id="SX9EASN-qoHNX0BiEk4m-20" style="edgeStyle=orthogonalEdgeStyle;rounded=0;orthogonalLoop=1;jettySize=auto;html=1;exitX=1;exitY=0.5;exitDx=0;exitDy=0;entryX=1;entryY=0.5;entryDx=0;entryDy=0;" edge="1" parent="1" source="SX9EASN-qoHNX0BiEk4m-8" target="SX9EASN-qoHNX0BiEk4m-7">
          <mxGeometry relative="1" as="geometry">
            <Array as="points">
              <mxPoint x="530" y="840" />
              <mxPoint x="530" y="719" />
            </Array>
          </mxGeometry>
        </mxCell>
        <mxCell id="SX9EASN-qoHNX0BiEk4m-22" style="edgeStyle=orthogonalEdgeStyle;rounded=0;orthogonalLoop=1;jettySize=auto;html=1;exitX=0;exitY=0.5;exitDx=0;exitDy=0;entryX=0;entryY=0.5;entryDx=0;entryDy=0;" edge="1" parent="1" source="SX9EASN-qoHNX0BiEk4m-8" target="SX9EASN-qoHNX0BiEk4m-3">
          <mxGeometry relative="1" as="geometry">
            <Array as="points">
              <mxPoint x="320" y="840" />
              <mxPoint x="320" y="350" />
            </Array>
          </mxGeometry>
        </mxCell>
        <mxCell id="SX9EASN-qoHNX0BiEk4m-8" value="Stop =1 ?" style="rhombus;whiteSpace=wrap;html=1;" vertex="1" parent="1">
          <mxGeometry x="368" y="780" width="115" height="120" as="geometry" />
        </mxCell>
        <mxCell id="SX9EASN-qoHNX0BiEk4m-23" value="Yes" style="text;html=1;strokeColor=none;fillColor=none;align=center;verticalAlign=middle;whiteSpace=wrap;rounded=0;" vertex="1" parent="1">
          <mxGeometry x="470" y="810" width="60" height="30" as="geometry" />
        </mxCell>
        <mxCell id="SX9EASN-qoHNX0BiEk4m-24" value="No" style="text;html=1;strokeColor=none;fillColor=none;align=center;verticalAlign=middle;whiteSpace=wrap;rounded=0;" vertex="1" parent="1">
          <mxGeometry x="320" y="810" width="60" height="30" as="geometry" />
        </mxCell>
        <mxCell id="SX9EASN-qoHNX0BiEk4m-26" value="" style="endArrow=classic;html=1;rounded=0;" edge="1" parent="1">
          <mxGeometry width="50" height="50" relative="1" as="geometry">
            <mxPoint x="310" y="260" as="sourcePoint" />
            <mxPoint x="365" y="260" as="targetPoint" />
          </mxGeometry>
        </mxCell>
        <mxCell id="SX9EASN-qoHNX0BiEk4m-27" value="Sys_rst removed" style="text;html=1;strokeColor=none;fillColor=none;align=center;verticalAlign=middle;whiteSpace=wrap;rounded=0;" vertex="1" parent="1">
          <mxGeometry x="252" y="244" width="60" height="30" as="geometry" />
        </mxCell>
        <mxCell id="SX9EASN-qoHNX0BiEk4m-28" value="Initialize Variable" style="text;html=1;strokeColor=none;fillColor=none;align=center;verticalAlign=middle;whiteSpace=wrap;rounded=0;" vertex="1" parent="1">
          <mxGeometry x="500" y="245" width="100" height="30" as="geometry" />
        </mxCell>
        <mxCell id="SX9EASN-qoHNX0BiEk4m-29" value="Load Instruction From Program memory" style="text;html=1;strokeColor=none;fillColor=none;align=center;verticalAlign=middle;whiteSpace=wrap;rounded=0;" vertex="1" parent="1">
          <mxGeometry x="500" y="335" width="120" height="30" as="geometry" />
        </mxCell>
        <mxCell id="SX9EASN-qoHNX0BiEk4m-30" value="Execute Instruction and update Condition Flags" style="text;html=1;strokeColor=none;fillColor=none;align=center;verticalAlign=middle;whiteSpace=wrap;rounded=0;" vertex="1" parent="1">
          <mxGeometry x="500" y="425" width="160" height="30" as="geometry" />
        </mxCell>
        <mxCell id="SX9EASN-qoHNX0BiEk4m-31" value="Delay between Instructions" style="text;html=1;strokeColor=none;fillColor=none;align=center;verticalAlign=middle;whiteSpace=wrap;rounded=0;" vertex="1" parent="1">
          <mxGeometry x="500" y="510" width="130" height="30" as="geometry" />
        </mxCell>
        <mxCell id="SX9EASN-qoHNX0BiEk4m-32" value="Predict next Instruction Address" style="text;html=1;strokeColor=none;fillColor=none;align=center;verticalAlign=middle;whiteSpace=wrap;rounded=0;" vertex="1" parent="1">
          <mxGeometry x="500" y="614" width="140" height="30" as="geometry" />
        </mxCell>
        <mxCell id="SX9EASN-qoHNX0BiEk4m-33" value="Check status of Halt" style="text;html=1;strokeColor=none;fillColor=none;align=center;verticalAlign=middle;whiteSpace=wrap;rounded=0;" vertex="1" parent="1">
          <mxGeometry x="550" y="700" width="110" height="30" as="geometry" />
        </mxCell>
        <mxCell id="SX9EASN-qoHNX0BiEk4m-34" value="wait till reset is applied" style="text;html=1;strokeColor=none;fillColor=none;align=center;verticalAlign=middle;whiteSpace=wrap;rounded=0;" vertex="1" parent="1">
          <mxGeometry x="550" y="830" width="90" height="30" as="geometry" />
        </mxCell>
        <mxCell id="SX9EASN-qoHNX0BiEk4m-35" value="" style="swimlane;startSize=0;" vertex="1" parent="1">
          <mxGeometry x="241" y="110" width="430" height="800" as="geometry" />
        </mxCell>
      </root>
    </mxGraphModel>
  </diagram>
</mxfile>
